<?xml version="1.0" encoding="UTF-8" standalone="no"?>
<svg
   xmlns:dc="http://purl.org/dc/elements/1.1/"
   xmlns:cc="http://creativecommons.org/ns#"
   xmlns:rdf="http://www.w3.org/1999/02/22-rdf-syntax-ns#"
   xmlns:svg="http://www.w3.org/2000/svg"
   xmlns="http://www.w3.org/2000/svg"
   xmlns:xlink="http://www.w3.org/1999/xlink"
   xmlns:sodipodi="http://sodipodi.sourceforge.net/DTD/sodipodi-0.dtd"
   xmlns:inkscape="http://www.inkscape.org/namespaces/inkscape"
   height="64"
   style="clip-rule:evenodd;fill-rule:evenodd;stroke-linejoin:round;stroke-miterlimit:1.41421"
   version="1.1"
   viewBox="0 0 64 64"
   width="64"
   xml:space="preserve"
   id="svg2"
   inkscape:version="0.92.5 (2060ec1f9f, 2020-04-08)"
   sodipodi:docname="com.ktechpit.mbook-symbolic.svg"><metadata
     id="metadata19"><rdf:RDF><cc:Work
         rdf:about=""><dc:format>image/svg+xml</dc:format><dc:type
           rdf:resource="http://purl.org/dc/dcmitype/StillImage" /><dc:title></dc:title></cc:Work></rdf:RDF></metadata><defs
     id="defs17"><filter
       inkscape:label="Fill Background"
       inkscape:menu="Fill and Transparency"
       inkscape:menu-tooltip="Adds a colorizable opaque background"
       style="color-interpolation-filters:sRGB"
       id="filter843"><feFlood
         result="result1"
         flood-color="rgb(255,0,0)"
         flood-opacity="1"
         id="feFlood845" /><feImage
         xlink:href=""
         result="result2"
         id="feImage847" /><feBlend
         result="result4"
         in2="result1"
         mode="multiply"
         id="feBlend849" /><feMerge
         result="result3"
         id="feMerge851"><feMergeNode
           in="result1"
           id="feMergeNode853" /><feMergeNode
           in="SourceGraphic"
           id="feMergeNode855" /></feMerge></filter></defs><sodipodi:namedview
     pagecolor="#ffffff"
     bordercolor="#666666"
     borderopacity="1"
     objecttolerance="10"
     gridtolerance="10"
     guidetolerance="10"
     inkscape:pageopacity="0"
     inkscape:pageshadow="2"
     inkscape:window-width="1848"
     inkscape:window-height="1016"
     id="namedview15"
     showgrid="false"
     inkscape:zoom="8.4606523"
     inkscape:cx="48.691451"
     inkscape:cy="19.901229"
     inkscape:window-x="72"
     inkscape:window-y="27"
     inkscape:window-maximized="1"
     inkscape:current-layer="svg2"
     inkscape:showpageshadow="2"
     inkscape:pagecheckerboard="0"
     inkscape:deskcolor="#d1d1d1" /><rect
     height="24"
     id="Artboard1"
     style="fill:none"
     width="24"
     x="0"
     y="0" /><path
     id="path4813"
     d="m 31.602723,56.732017 q -3.004696,-2.37875 -6.510174,-3.693333 -3.505476,-1.313809 -7.261346,-1.313809 -2.629109,0 -5.164324,0.689871 -2.535213,0.68831 -4.8513331,1.940496 Q 6.500996,55.045114 5.2803381,54.29419 4.0596829,53.541853 4.0596829,52.103236 V 21.931041 q 0,-0.688335 0.3442942,-1.313795 0.3442943,-0.625848 1.032861,-0.939296 2.879497,-1.502253 6.0093879,-2.253502 3.129892,-0.750837 6.38498,-0.750837 3.630673,0 7.104855,0.939281 3.474177,0.939243 6.666666,2.816875 v 30.297521 q 3.192488,-2.003203 6.697962,-3.004754 3.505473,-1.00173 7.073556,-1.00173 2.253526,0 4.413147,0.375961 2.159627,0.375959 4.350543,1.126487 V 18.176419 q 0.938976,0.313358 1.846646,0.658597 0.907642,0.344489 1.784034,0.845594 0.688562,0.313342 1.032872,0.939282 0.344314,0.625872 0.344314,1.315267 v 30.17204 q 0,1.440205 -1.220673,2.190963 -1.220653,0.752386 -2.535202,0.06105 -2.316122,-1.251371 -4.851331,-1.940559 -2.535215,-0.689899 -5.164331,-0.689899 -3.755868,0 -7.261339,1.315282 -3.505474,1.313783 -6.510169,3.693024 z M 36.61055,44.212419 V 20.425262 L 49.130115,7.905625 v 25.03916 z M 26.594897,48.281274 V 23.492492 q -2.06573,-0.876846 -4.287951,-1.34644 -2.222222,-0.469571 -4.475743,-0.469571 -2.316121,0 -4.507044,0.438319 -2.190927,0.43832 -4.2566552,1.313758 v 24.851437 q 2.1909252,-0.814446 4.3505512,-1.189038 2.159625,-0.375974 4.413148,-0.375974 2.253521,0 4.413146,0.375974 2.159624,0.37596 4.350548,1.189038 z m 0,0 V 23.492492 Z"
     inkscape:connector-curvature="0"
     style="fill:#000000;fill-opacity:1;stroke-width:0.06259771" /></svg>