<?xml version="1.0" encoding="UTF-8" standalone="no"?>
<svg
   xmlns:dc="http://purl.org/dc/elements/1.1/"
   xmlns:cc="http://creativecommons.org/ns#"
   xmlns:rdf="http://www.w3.org/1999/02/22-rdf-syntax-ns#"
   xmlns:svg="http://www.w3.org/2000/svg"
   xmlns="http://www.w3.org/2000/svg"
   xmlns:xlink="http://www.w3.org/1999/xlink"
   xmlns:sodipodi="http://sodipodi.sourceforge.net/DTD/sodipodi-0.dtd"
   xmlns:inkscape="http://www.inkscape.org/namespaces/inkscape"
   height="100%"
   style="fill-rule:evenodd;clip-rule:evenodd;stroke-linejoin:round;stroke-miterlimit:1.41421;"
   version="1.1"
   viewBox="0 0 24 24"
   width="100%"
   xml:space="preserve"
   id="svg2"
   inkscape:version="0.92.5 (2060ec1f9f, 2020-04-08)"
   sodipodi:docname="com.ktechpit.mbook.svg"><metadata
     id="metadata19"><rdf:RDF><cc:Work
         rdf:about=""><dc:format>image/svg+xml</dc:format><dc:type
           rdf:resource="http://purl.org/dc/dcmitype/StillImage" /><dc:title></dc:title></cc:Work></rdf:RDF></metadata><defs
     id="defs17"><filter
       inkscape:label="Fill Background"
       inkscape:menu="Fill and Transparency"
       inkscape:menu-tooltip="Adds a colorizable opaque background"
       style="color-interpolation-filters:sRGB;"
       id="filter843"><feFlood
         result="result1"
         flood-color="rgb(255,0,0)"
         flood-opacity="1"
         id="feFlood845" /><feImage
         xlink:href=""
         result="result2"
         id="feImage847" /><feBlend
         result="result4"
         in2="result1"
         mode="multiply"
         id="feBlend849" /><feMerge
         result="result3"
         id="feMerge851"><feMergeNode
           in="result1"
           id="feMergeNode853" /><feMergeNode
           in="SourceGraphic"
           id="feMergeNode855" /></feMerge></filter></defs><sodipodi:namedview
     pagecolor="#ffffff"
     bordercolor="#666666"
     borderopacity="1"
     objecttolerance="10"
     gridtolerance="10"
     guidetolerance="10"
     inkscape:pageopacity="0"
     inkscape:pageshadow="2"
     inkscape:window-width="1848"
     inkscape:window-height="1016"
     id="namedview15"
     showgrid="false"
     inkscape:zoom="11.965169"
     inkscape:cx="19.649783"
     inkscape:cy="5.4725418"
     inkscape:window-x="72"
     inkscape:window-y="27"
     inkscape:window-maximized="1"
     inkscape:current-layer="svg2" /><rect
     height="24"
     id="Artboard1"
     style="fill:none;"
     width="24"
     x="0"
     y="0" /><path
     id="path4813"
     d="m 12.098651,20.659232 q -1.040254,-0.823544 -2.2538829,-1.278668 -1.21363,-0.45485 -2.5139476,-0.45485 -0.9102224,0 -1.7879376,0.238843 Q 4.6651685,19.402856 3.8633056,19.83637 3.4081963,20.075211 2.9855919,19.81522 2.5629906,19.554756 2.5629906,19.056695 V 8.6107994 q 0,-0.2383076 0.119198,-0.4548467 0.119198,-0.2166723 0.357586,-0.3251909 0.9969088,-0.5200941 2.080507,-0.7801846 1.083598,-0.2599496 2.2105403,-0.2599496 1.2569732,0 2.4597672,0.3251911 1.2027929,0.3251722 2.3080629,0.9752268 V 18.580336 q 1.10527,-0.69353 2.318898,-1.040275 1.213628,-0.346811 2.448932,-0.346811 0.780191,0 1.527874,0.13016 0.747683,0.130164 1.506199,0.390002 V 7.3109143 q 0.325082,0.1084872 0.639325,0.2280136 0.314235,0.1192643 0.617651,0.2927524 0.238386,0.1084843 0.35759,0.325188 0.119204,0.2166853 0.119204,0.4553611 V 19.058071 q 0,0.498617 -0.422608,0.758533 -0.422602,0.260484 -0.877712,0.02115 -0.801863,-0.433235 -1.679576,-0.67184 -0.877716,-0.238848 -1.78794,-0.238848 -1.300318,0 -2.513944,0.455365 -1.213629,0.454842 -2.253882,1.278557 z m 1.733757,-4.334403 V 8.089492 L 18.1668,3.7550753 v 8.6687937 z m -3.467514,1.408675 V 9.1513934 Q 9.6497201,8.8478224 8.8803651,8.6852454 8.1110101,8.5226751 7.3308205,8.5226751 q -0.8018636,0 -1.5603814,0.1517523 -0.7585186,0.15175 -1.4736937,0.454834 V 17.733062 Q 5.055264,17.451093 5.8029471,17.321405 6.5506302,17.19124 7.3308205,17.19124 q 0.7801896,0 1.5278736,0.130165 0.747682,0.13016 1.5061999,0.411657 z m 0,0 V 9.1513934 Z"
     inkscape:connector-curvature="0"
     style="fill:#0095ff;fill-opacity:1;stroke-width:0.02167191" /></svg>