<?xml version="1.0" encoding="UTF-8" standalone="no"?>
<svg
   xmlns:dc="http://purl.org/dc/elements/1.1/"
   xmlns:cc="http://creativecommons.org/ns#"
   xmlns:rdf="http://www.w3.org/1999/02/22-rdf-syntax-ns#"
   xmlns:svg="http://www.w3.org/2000/svg"
   xmlns="http://www.w3.org/2000/svg"
   xmlns:xlink="http://www.w3.org/1999/xlink"
   xmlns:sodipodi="http://sodipodi.sourceforge.net/DTD/sodipodi-0.dtd"
   xmlns:inkscape="http://www.inkscape.org/namespaces/inkscape"
   height="100%"
   style="fill-rule:evenodd;clip-rule:evenodd;stroke-linejoin:round;stroke-miterlimit:1.41421;"
   version="1.1"
   viewBox="0 0 24 24"
   width="100%"
   xml:space="preserve"
   id="svg2"
   inkscape:version="0.92.5 (2060ec1f9f, 2020-04-08)"
   sodipodi:docname="icon.svg"><metadata
     id="metadata19"><rdf:RDF><cc:Work
         rdf:about=""><dc:format>image/svg+xml</dc:format><dc:type
           rdf:resource="http://purl.org/dc/dcmitype/StillImage" /><dc:title></dc:title></cc:Work></rdf:RDF></metadata><defs
     id="defs17"><filter
       inkscape:label="Fill Background"
       inkscape:menu="Fill and Transparency"
       inkscape:menu-tooltip="Adds a colorizable opaque background"
       style="color-interpolation-filters:sRGB;"
       id="filter843"><feFlood
         result="result1"
         flood-color="rgb(255,0,0)"
         flood-opacity="1"
         id="feFlood845" /><feImage
         xlink:href=""
         result="result2"
         id="feImage847" /><feBlend
         result="result4"
         in2="result1"
         mode="multiply"
         id="feBlend849" /><feMerge
         result="result3"
         id="feMerge851"><feMergeNode
           in="result1"
           id="feMergeNode853" /><feMergeNode
           in="SourceGraphic"
           id="feMergeNode855" /></feMerge></filter></defs><sodipodi:namedview
     pagecolor="#ffffff"
     bordercolor="#666666"
     borderopacity="1"
     objecttolerance="10"
     gridtolerance="10"
     guidetolerance="10"
     inkscape:pageopacity="0"
     inkscape:pageshadow="2"
     inkscape:window-width="1848"
     inkscape:window-height="1016"
     id="namedview15"
     showgrid="false"
     inkscape:zoom="16.921305"
     inkscape:cx="11.212794"
     inkscape:cy="1.770134"
     inkscape:window-x="72"
     inkscape:window-y="27"
     inkscape:window-maximized="1"
     inkscape:current-layer="svg2" /><rect
     height="24"
     id="Artboard1"
     style="fill:none;"
     width="24"
     x="0"
     y="0" /><path
     id="path4813"
     d="m 11.842612,21.167085 q -1.112878,-0.881038 -2.4112357,-1.367936 -1.298359,-0.486608 -2.6894568,-0.486608 -0.9737691,0 -1.9127612,0.255518 Q 3.890167,19.822992 3.032323,20.286777 2.5454402,20.542291 2.0933326,20.264138 1.6412267,19.985489 1.6412267,19.452657 V 8.2775012 q 0,-0.2549464 0.1275203,-0.4866025 Q 1.8962665,7.5590992 2.1512973,7.4430052 3.2178054,6.8866015 4.3770533,6.6083526 5.5363021,6.330254 6.7419213,6.330254 q 1.344728,0 2.631494,0.3478943 1.2867657,0.3478739 2.4691987,1.0433113 V 18.943053 q 1.182433,-0.741949 2.480789,-1.112903 1.298358,-0.371021 2.619903,-0.371021 0.83466,0 1.63454,0.139245 0.799881,0.139254 1.611354,0.417231 V 6.8868631 q 0.347777,0.116062 0.683959,0.2439328 0.336175,0.1275906 0.660772,0.3131913 0.25503,0.1160576 0.382555,0.34789 0.127526,0.2318127 0.127526,0.4871522 V 19.454139 q 0,0.533425 -0.452112,0.811492 -0.452105,0.278667 -0.938989,0.02264 -0.857843,-0.463484 -1.796834,-0.718745 -0.938992,-0.255521 -1.912764,-0.255521 -1.391097,0 -2.689453,0.487155 -1.298357,0.486597 -2.411235,1.367818 z M 13.69741,16.53008 V 7.719797 L 18.334405,3.0827769 V 12.356776 Z M 9.9878153,18.037099 V 8.855834 Q 9.2227103,8.5310696 8.3996443,8.3571425 7.5765783,8.1832224 6.7419195,8.1832224 q -0.857844,0 -1.6693185,0.162347 Q 4.2611273,8.5079138 3.4960223,8.832158 v 9.204468 q 0.8114745,-0.301656 1.6113564,-0.440396 0.799882,-0.139253 1.6345408,-0.139253 0.8346588,0 1.6345408,0.139253 0.799881,0.139246 1.611355,0.440396 z m 0,0 V 8.855834 Z"
     inkscape:connector-curvature="0"
     style="fill:#0095ff;fill-opacity:1;stroke-width:0.02318492" /></svg>